<?xml version="1.0" encoding="utf-8"?>
<!-- Generator: Adobe Illustrator 24.0.0, SVG Export Plug-In . SVG Version: 6.00 Build 0)  -->
<svg version="1.1" id="Слой_1" xmlns="http://www.w3.org/2000/svg" xmlns:xlink="http://www.w3.org/1999/xlink" x="0px" y="0px"
	 viewBox="0 0 21 21" style="enable-background:new 0 0 21 21;" xml:space="preserve">
<style type="text/css">
	.st0{fill:#996600;stroke:#996600;stroke-miterlimit:10;}
</style>
<g>
	<g transform="translate(-1193 -121)">
		<g>
			<path id="ta6ya" class="st0" d="M1213.26,141.25c-0.32,0.33-0.85,0.33-1.18,0c0,0,0,0,0,0l-4.81-4.8
				c-1.5,1.24-3.39,1.91-5.34,1.91c-4.65,0-8.43-3.77-8.43-8.43c0-4.65,3.77-8.43,8.43-8.43c4.65,0,8.43,3.77,8.43,8.43
				c0,1.95-0.67,3.83-1.91,5.34l4.81,4.81C1213.58,140.4,1213.58,140.93,1213.26,141.25
				C1213.26,141.25,1213.26,141.25,1213.26,141.25L1213.26,141.25z M1208.68,129.93c0-3.72-3.03-6.76-6.76-6.76
				c-3.73,0-6.75,3.03-6.76,6.76c0,3.72,3.03,6.75,6.76,6.75C1205.65,136.68,1208.68,133.65,1208.68,129.93z"/>
		</g>
	</g>
</g>
</svg>
