<?xml version="1.0" encoding="utf-8"?>
<!-- Generator: Adobe Illustrator 24.0.0, SVG Export Plug-In . SVG Version: 6.00 Build 0)  -->
<svg version="1.1" id="Слой_1" xmlns="http://www.w3.org/2000/svg" xmlns:xlink="http://www.w3.org/1999/xlink" x="0px" y="0px"
	 viewBox="0 0 16 16" style="enable-background:new 0 0 16 16;" xml:space="preserve">
<style type="text/css">
	.st0{fill:#9F6212;}
</style>
<g>
	<polygon class="st0" points="16,4.72 16,11.12 14.84,11.12 14.84,7.66 13.98,11.12 13.6,11.12 13.6,11.12 13.22,11.12 12.36,7.66 
		12.36,11.12 11.2,11.12 11.2,4.72 12.65,4.72 13.6,7.97 14.55,4.72 	"/>
	<path class="st0" d="M9.33,2.83H6.67L5.66,13.01h1.47l0.11-1.45l0.07-0.88h1.38l0.07,0.88l0.11,1.45h1.47L9.33,2.83z M7.42,9.79
		l0.27-5.43h0.62l0.28,5.43H7.42z"/>
	<path class="st0" d="M4.09,4.86H3.04V4.58H1.89v0.29H0.84C0.38,4.86,0,5.21,0,5.65l0,4.56c0,0.43,0.38,0.78,0.84,0.78h1.05v0.14h0
		v0.15h1.14v-0.29h1.05c0.46,0,0.84-0.35,0.84-0.78V5.65C4.93,5.21,4.55,4.86,4.09,4.86z M1.89,10.17H1.6
		c-0.16,0-0.29-0.12-0.29-0.27l0-3.94c0-0.16,0.13-0.28,0.3-0.28h0.28L1.89,10.17z M3.62,9.9c0,0.15-0.13,0.27-0.29,0.27H3.04V5.68
		h0.28c0.17,0,0.3,0.13,0.3,0.28V9.9z"/>
</g>
</svg>
