<?xml version="1.0" encoding="utf-8"?>
<!-- Generator: Adobe Illustrator 24.0.0, SVG Export Plug-In . SVG Version: 6.00 Build 0)  -->
<svg version="1.1" id="Слой_1" xmlns="http://www.w3.org/2000/svg" xmlns:xlink="http://www.w3.org/1999/xlink" x="0px" y="0px"
	 viewBox="0 0 501 332" style="enable-background:new 0 0 501 332;" xml:space="preserve">
<style type="text/css">
	.st0{fill:#9F6212;}
	.st1{fill:#FFFFFF;}
</style>
<g>
	<rect x="114.6" y="57.5" class="st0" width="364.9" height="217"/>
	<g>
		<path class="st1" d="M455.1,268c-5,0-9-4-9-9v-47l-12,49.1c-1,4.1-4.6,6.9-8.8,6.9l-18.7,0c-4.2,0-7.8-2.8-8.8-6.9l-12.1-49.2V259
			c0,5-4,9-9,9h-29.4c-5,0-9-4-9-9V73c0-5,4-9,9-9H386c4,0,7.6,2.7,8.7,6.5L416,144l21.2-73.5c1.1-3.8,4.7-6.5,8.7-6.5h38.7
			c5,0,9,4,9,9v186c0,2.3-0.9,4.6-2.6,6.3c-1.7,1.7-4,2.7-6.4,2.7L455.1,268z"/>
		<path class="st0" d="M484.5,70.5c1.4,0,2.5,1.1,2.5,2.5v186c0,1.4-1.1,2.5-2.5,2.5l-29.4,0c-1.4,0-2.5-1.1-2.5-2.5v-92.6
			c0-0.6-0.5-1-1-1c-0.4,0-0.8,0.2-1,0.8l-22.9,93.4c-0.3,1.1-1.3,1.9-2.4,1.9l-18.7,0c-1.2,0-2.2-0.8-2.5-1.9l-22.9-93.5
			c-0.1-0.5-0.5-0.8-1-0.8c-0.5,0-1,0.4-1,1V259c0,1.4-1.1,2.5-2.5,2.5h-29.4c-1.4,0-2.5-1.1-2.5-2.5V73c0-1.4,1.1-2.5,2.5-2.5H386
			c1.1,0,2.1,0.7,2.4,1.8l26.5,91.8c0.1,0.5,0.6,0.7,1,0.7s0.8-0.2,1-0.7l26.5-91.8c0.3-1.1,1.3-1.8,2.4-1.8H484.5 M484.5,57.5
			h-38.7c-6.9,0-13,4.6-14.9,11.2l-15,51.9l-15-51.9c-1.9-6.6-8-11.2-14.9-11.2h-38.7c-8.6,0-15.5,7-15.5,15.5v186
			c0,8.6,7,15.5,15.5,15.5h29.4c7.1,0,13.1-4.8,14.9-11.2c1.9,6.7,8,11.2,14.9,11.2l18.7,0c6.9,0,12.9-4.6,14.9-11.2
			c1.9,6.5,7.9,11.2,14.9,11.2l29.4,0c4.1,0,8.2-1.7,11.1-4.6c2.9-2.9,4.5-6.8,4.5-11V73C500.1,64.4,493.1,57.5,484.5,57.5
			L484.5,57.5z"/>
	</g>
	<g>
		<path class="st1" d="M183.3,324.5c-2.5,0-5-1.1-6.7-3c-1.7-1.9-2.5-4.4-2.3-7L204,15.7c0.5-4.6,4.3-8.1,9-8.1H287
			c4.7,0,8.5,3.5,9,8.1l29.7,298.9c0.3,2.5-0.6,5.1-2.3,6.9c-1.7,1.9-4.1,3-6.7,3h-38.5c-4.7,0-8.6-3.7-9-8.3l-4.7-61.4h-28.9
			l-4.7,61.4c-0.4,4.7-4.3,8.3-9,8.3H183.3z M260.5,215.3l-7.5-149h-5.9l-7.4,149H260.5z"/>
		<path class="st0" d="M287,14c1.3,0,2.4,1,2.5,2.3l29.7,298.9c0.2,1.5-1,2.8-2.5,2.8h-38.5c0,0,0,0,0,0c-1.3,0-2.4-1-2.5-2.3
			l-5-65.1c-0.1-1.3-1.2-2.3-2.5-2.3h-36.3c-1.3,0-2.4,1-2.5,2.3l-5,65.1c-0.1,1.3-1.2,2.3-2.5,2.3h-38.5c-1.5,0-2.7-1.3-2.5-2.8
			l29.7-298.9c0.1-1.3,1.2-2.3,2.5-2.3H287 M235.5,221.8h29.2c1.4,0,2.6-1.2,2.5-2.7l-7.9-157c-0.1-1.4-1.2-2.4-2.5-2.4h-13.5
			c-1.3,0-2.4,1.1-2.5,2.4l-7.8,157C232.9,220.6,234,221.8,235.5,221.8 M287,1h-74c-8,0-14.6,6-15.4,14l-29.7,298.9
			c-0.4,4.3,1,8.7,3.9,11.9c2.9,3.3,7.1,5.1,11.5,5.1h38.5c8.1,0,14.9-6.3,15.5-14.3l4.3-55.4h16.9l4.3,55.4
			c0.6,8,7.4,14.3,15.5,14.3h0.1l0,0h38.4c4.4,0,8.6-1.9,11.5-5.1c2.9-3.2,4.4-7.6,3.9-12L302.5,15C301.7,7,295,1,287,1L287,1z
			 M246.5,208.8l3.6-71.5l3.6,71.5H246.5L246.5,208.8z"/>
	</g>
	<g>
		<path class="st1" d="M72.5,276.8c-4.9,0-8.9-4-9-8.9H38.7c-17.3,0-31.3-13.9-31.3-30.9l0-142.2c0-17,14-30.9,31.3-30.9h24.8
			c0.1-5,4.1-9,9-9h28.9c4.9,0,8.9,4,9,9h24.7c17.3,0,31.3,13.9,31.3,30.9v135.7l0,6.5c0,17-14,30.9-31.3,30.9h-24.7
			c-0.1,4.9-4.1,8.9-9,8.9H72.5z M112.6,229.5c1.2,0,2.1-0.9,2.1-2V104.6c0-1.3-1.1-2.3-2.4-2.3h-1.8v127.2H112.6z M61.7,102.3
			c-1.4,0-2.4,1-2.4,2.3l0,122.9c0,1.1,1,2,2.1,2h2.1l0-127.2H61.7z"/>
		<path class="st0" d="M101.4,61.5c1.4,0,2.5,1.2,2.5,2.6v5.3c0,0.6,0.4,1,1,1h30.2c13.7,0,24.8,10.9,24.8,24.4v142.2h0
			c0,13.5-11.1,24.4-24.8,24.4h-30.2c-0.5,0-1,0.5-1,1v5.2c0,1.5-1.1,2.6-2.5,2.6H72.5c-1.4,0-2.5-1.2-2.5-2.6l0-5.2
			c0-0.6-0.4-1-1-1H38.7c-13.7,0-24.8-10.9-24.8-24.4l0-142.2c0-13.5,11.1-24.4,24.8-24.4H69c0.6,0,1-0.5,1-1v-5.3
			c0-1.5,1.1-2.6,2.5-2.6H101.4 M104.9,236h7.6c4.7,0,8.6-3.8,8.6-8.5V104.6c0-4.9-4-8.8-8.9-8.8h-7.3c-0.5,0-1,0.5-1,1V235
			C103.9,235.6,104.4,236,104.9,236 M61.4,236H69c0.6,0,1-0.5,1-1l0-138.1c0-0.6-0.4-1-1-1h-7.3c-5,0-8.9,3.9-8.9,8.8l-0.1,122.9
			C52.7,232.2,56.7,236,61.4,236 M101.4,48.5H72.5c-6.2,0-11.6,3.7-14,9H38.8C17.9,57.4,1,74.2,1,94.8l0,142.2
			c0,20.6,17,37.4,37.8,37.4h19.8c2.5,5.3,7.8,8.9,14,8.9h28.9c6.2,0,11.5-3.6,14-8.9h19.8c20.8,0,37.8-16.8,37.8-37.4v-13h0V94.8
			c0-20.6-17-37.4-37.8-37.4h-19.7C113,52.1,107.6,48.5,101.4,48.5L101.4,48.5z"/>
	</g>
</g>
</svg>
