<?xml version="1.0" encoding="utf-8"?>
<!-- Generator: Adobe Illustrator 24.0.0, SVG Export Plug-In . SVG Version: 6.00 Build 0)  -->
<svg version="1.1" id="Слой_1" xmlns="http://www.w3.org/2000/svg" xmlns:xlink="http://www.w3.org/1999/xlink" x="0px" y="0px"
	 viewBox="0 0 500 330" style="enable-background:new 0 0 500 330;" xml:space="preserve">
<style type="text/css">
	.st0{fill:#9F6212;}
</style>
<g>
	<path class="st0" d="M289.3,15.3c-0.1-1.3-1.2-2.3-2.5-2.3h-74.1c-1.3,0-2.4,1-2.5,2.3l-29.7,298.9c-0.1,1.5,1,2.8,2.5,2.8h38.5
		c1.3,0,2.4-1,2.5-2.3l5-65.1c0.1-1.3,1.2-2.3,2.5-2.3h36.3c1.3,0,2.4,1,2.5,2.3l5,65.1c0.1,1.3,1.2,2.3,2.5,2.3h38.5
		c1.5,0,2.7-1.3,2.5-2.8L289.3,15.3z M264.4,220.8h-29.2c-1.4,0-2.6-1.2-2.5-2.6l7.8-157c0.1-1.3,1.2-2.4,2.5-2.4h13.5
		c1.3,0,2.5,1,2.5,2.4l7.9,157C267,219.6,265.8,220.8,264.4,220.8z"/>
</g>
<g>
	<path class="st0" d="M456,68.5v186c0,1.4-1.1,2.5-2.5,2.5h-29.4c-1.4,0-2.5-1.1-2.5-2.5v-92.6c0-1.2-1.7-1.4-2-0.2l-22.9,93.4
		c-0.3,1.1-1.3,1.9-2.5,1.9h-18.7c-1.2,0-2.2-0.8-2.5-1.9l-22.8-93.5c-0.3-1.2-2-0.9-2,0.2v92.7c0,1.4-1.1,2.5-2.5,2.5h-12.8
		L314.1,67.3c0.4-0.8,1.3-1.4,2.2-1.4H355c1.1,0,2.1,0.7,2.4,1.8l26.5,91.8c0.3,1,1.6,1,1.9,0l26.5-91.8c0.3-1.1,1.3-1.8,2.4-1.8
		h38.7C454.9,66,456,67.1,456,68.5z"/>
</g>
<g>
	<path class="st0" d="M164,69.4h-30.2c-0.5,0-1-0.5-1-1v-5.3c0-1.5-1.1-2.6-2.5-2.6h-28.9c-1.4,0-2.5,1.2-2.5,2.6v5.3
		c0,0.6-0.5,1-1,1H67.6c-13.7,0-24.8,10.9-24.8,24.4V236c0,13.5,11.1,24.4,24.8,24.4h30.3c0.6,0,1,0.5,1,1v5.2
		c0,1.5,1.1,2.6,2.5,2.6h28.9c1.4,0,2.5-1.2,2.5-2.6v-5.2c0-0.6,0.5-1,1-1H164c0.5,0,0.9,0,1.4,0l18-181.7
		C178.9,73.1,171.9,69.4,164,69.4z M98.8,234c0,0.6-0.4,1.1-1,1.1h-7.6c-4.7,0-8.6-3.8-8.6-8.5v-123c0-4.9,4-8.8,8.9-8.8h7.3
		c0.5,0,1,0.5,1,1L98.8,234z M150,226.5c0,4.7-3.9,8.5-8.6,8.5h-7.6c-0.5,0-1-0.5-1-1.1v-138c0-0.6,0.5-1,1-1h7.3
		c4.9,0,8.9,4,8.9,8.8L150,226.5L150,226.5z"/>
</g>
</svg>
