<?xml version="1.0" encoding="utf-8"?>
<!-- Generator: Adobe Illustrator 24.0.0, SVG Export Plug-In . SVG Version: 6.00 Build 0)  -->
<svg version="1.1" id="Слой_1" xmlns="http://www.w3.org/2000/svg" xmlns:xlink="http://www.w3.org/1999/xlink" x="0px" y="0px"
	 viewBox="0 0 500 330" style="enable-background:new 0 0 500 330;" xml:space="preserve">
<style type="text/css">
	.st0{fill:#9F6212;}
</style>
<g>
	<path class="st0" d="M492,56.45H308.92c-1.3,0-2.38-0.98-2.51-2.27l-4.66-46.97C301.34,3.12,297.9,0,293.79,0h-87.58
		c-4.11,0-7.55,3.12-7.96,7.21l-4.66,46.97c-0.13,1.29-1.21,2.27-2.51,2.27H8c-4.42,0-8,3.58-8,8v201.1c0,4.42,3.58,8,8,8h161.02
		c1.49,0,2.66,1.29,2.51,2.77l-4.46,44.89c-0.47,4.71,3.23,8.79,7.96,8.79h53.67c4.18,0,7.65-3.22,7.98-7.38l3.61-46.74
		c0.1-1.31,1.2-2.33,2.52-2.33h14.42c1.32,0,2.42,1.02,2.52,2.33l3.61,46.74c0.32,4.17,3.8,7.38,7.98,7.38h53.63
		c4.73,0,8.43-4.08,7.96-8.79l-4.46-44.89c-0.15-1.49,1.02-2.77,2.51-2.77H492c4.42,0,8-3.58,8-8V64.45
		C500,60.03,496.42,56.45,492,56.45z M158.97,233.04c0,12.9-11.08,23.31-24.79,23.31h-30.24c-0.55,0-1,0.45-1,1v4.99
		c0,1.39-1.13,2.52-2.52,2.52H71.52c-1.39,0-2.52-1.12-2.52-2.51l-0.02-5c0-0.55-0.45-1-1-1H37.72c-13.66,0-24.79-10.41-24.79-23.31
		l0.04-135.99c0-12.86,11.09-23.32,24.79-23.32h30.25c0.55,0,1-0.45,1-1v-5.07c0-1.39,1.13-2.52,2.52-2.52h28.88
		c1.39,0,2.52,1.13,2.52,2.52v5.07c0,0.55,0.45,1,1,1h30.24c13.71,0,24.79,10.46,24.79,23.32V233.04z M275.73,314.64l-5.03-65.07
		c-0.1-1.31-1.2-2.33-2.52-2.33H231.9c-1.32,0-2.41,1.01-2.52,2.33l-5.02,65.07c-0.1,1.31-1.2,2.33-2.52,2.33h-38.54
		c-1.49,0-2.66-1.29-2.51-2.77L210.46,15.3c0.13-1.29,1.21-2.27,2.51-2.27h74.05c1.3,0,2.38,0.98,2.51,2.27l29.67,298.89
		c0.15,1.49-1.02,2.77-2.51,2.77h-38.45C276.92,316.97,275.83,315.96,275.73,314.64z M484.54,260.53l-29.44-0.04
		c-1.39,0-2.52-1.13-2.52-2.52V165.4c0-1.18-1.69-1.39-1.97-0.24l-22.86,93.4c-0.28,1.13-1.29,1.92-2.45,1.92l-18.67,0.04
		c-1.16,0-2.18-0.79-2.46-1.92l-22.9-93.46c-0.28-1.15-1.97-0.94-1.97,0.24v92.62c0,1.39-1.13,2.52-2.52,2.52h-29.43
		c-1.39,0-2.52-1.13-2.52-2.52V71.99c0-1.39,1.13-2.52,2.52-2.52h38.68c1.12,0,2.11,0.74,2.42,1.82l26.53,91.77
		c0.28,0.96,1.64,0.96,1.92,0l26.53-91.77c0.31-1.08,1.3-1.82,2.42-1.82h38.68c1.39,0,2.52,1.13,2.52,2.52V258
		C487.07,259.4,485.93,260.53,484.54,260.53z"/>
	<path class="st0" d="M69.01,99l-0.04,132.04c0,0.55-0.45,1-1,1h-7.62c-4.7,0-8.63-3.61-8.63-8.12l0.05-117.5
		c0-4.65,3.96-8.42,8.92-8.42h7.32C68.56,98,69.01,98.45,69.01,99z"/>
	<path class="st0" d="M120.18,106.43v117.5c0,4.51-3.89,8.12-8.62,8.12h-7.62c-0.55,0-1-0.45-1-1V99c0-0.55,0.45-1,1-1h7.31
		C116.16,98,120.18,101.78,120.18,106.43z"/>
	<g>
		<path class="st0" d="M264.63,220.8h-29.18c-1.44,0-2.59-1.21-2.52-2.65l7.81-157c0.07-1.34,1.18-2.4,2.52-2.4h13.47
			c1.34,0,2.45,1.05,2.52,2.4l7.9,157C267.23,219.59,266.08,220.8,264.63,220.8z"/>
	</g>
</g>
</svg>
