<?xml version="1.0" encoding="utf-8"?>
<!-- Generator: Adobe Illustrator 24.0.0, SVG Export Plug-In . SVG Version: 6.00 Build 0)  -->
<svg version="1.1" id="Слой_1" xmlns="http://www.w3.org/2000/svg" xmlns:xlink="http://www.w3.org/1999/xlink" x="0px" y="0px"
	 viewBox="0 0 20 20" style="enable-background:new 0 0 20 20;" xml:space="preserve">
<style type="text/css">
	.st0{fill:none;stroke:#9f6212;stroke-width:1;stroke-miterlimit:10;}
</style>
<g>
	<rect x="2.15" y="10.3" class="st0" width="1.53" height="8.7"/>
	<rect x="16.31" y="10.3" class="st0" width="1.53" height="8.7"/>
	<rect x="1.01" y="9.11" class="st0" width="17.99" height="1.19"/>
	<rect x="2.15" y="8.32" class="st0" width="3.83" height="0.79"/>
	<rect x="3.69" y="10.3" class="st0" width="7.08" height="2.37"/>
	<rect x="3.69" y="12.67" class="st0" width="7.08" height="2.37"/>
	<line class="st0" x1="6.75" y1="11.48" x2="7.9" y2="11.48"/>
	<line class="st0" x1="4.33" y1="3.77" x2="5.88" y2="2.16"/>
	<line class="st0" x1="6.39" y1="2.75" x2="4.91" y2="4.35"/>
	<polyline class="st0" points="6.36,2.56 6.36,5.16 10.19,1.6 7.3,1.6 	"/>
	<line class="st0" x1="4.62" y1="8.32" x2="4.62" y2="5.14"/>
	<line class="st0" x1="3.81" y1="5.11" x2="3.81" y2="8.32"/>
	<ellipse class="st0" cx="6.56" cy="1.8" rx="0.77" ry="0.79"/>
	<ellipse class="st0" cx="4.23" cy="4.56" rx="0.77" ry="0.79"/>
	<rect x="14.4" y="5.16" class="st0" width="1.15" height="3.95"/>
	<rect x="15.55" y="5.95" class="st0" width="1.15" height="3.16"/>
	<rect x="16.7" y="6.74" class="st0" width="1.15" height="2.37"/>
</g>
</svg>
