<?xml version="1.0" encoding="utf-8"?>
<!-- Generator: Adobe Illustrator 24.0.0, SVG Export Plug-In . SVG Version: 6.00 Build 0)  -->
<svg version="1.1" id="Слой_1" xmlns="http://www.w3.org/2000/svg" xmlns:xlink="http://www.w3.org/1999/xlink" x="0px" y="0px"
	 viewBox="0 0 100 100" style="enable-background:new 0 0 100 100;" xml:space="preserve">
<style type="text/css">
	.st0{fill:none;stroke:#9f6212;stroke-width:2;stroke-miterlimit:10;}
</style>
<rect x="8.6" y="51.6" class="st0" width="8.1" height="45.9"/>
<rect x="83.3" y="51.6" class="st0" width="8.1" height="45.9"/>
<rect x="2.5" y="45.3" class="st0" width="95" height="6.3"/>
<rect x="8.6" y="41.1" class="st0" width="20.2" height="4.2"/>
<rect x="16.6" y="51.6" class="st0" width="37.4" height="12.5"/>
<rect x="16.6" y="64.1" class="st0" width="37.4" height="12.5"/>
<line class="st0" x1="32.8" y1="57.8" x2="38.9" y2="57.8"/>
<line class="st0" x1="20" y1="17.1" x2="28.3" y2="8.6"/>
<line class="st0" x1="31" y1="11.7" x2="23.1" y2="20.2"/>
<polyline class="st0" points="30.8,10.7 30.8,24.4 51,5.6 35.7,5.6 "/>
<line class="st0" x1="21.6" y1="41.1" x2="21.6" y2="24.3"/>
<line class="st0" x1="17.3" y1="24.2" x2="17.3" y2="41.1"/>
<ellipse class="st0" cx="31.8" cy="6.7" rx="4" ry="4.2"/>
<ellipse class="st0" cx="19.5" cy="21.3" rx="4" ry="4.2"/>
<rect x="73.2" y="24.4" class="st0" width="6.1" height="20.9"/>
<rect x="79.3" y="28.6" class="st0" width="6.1" height="16.7"/>
<rect x="85.4" y="32.8" class="st0" width="6.1" height="12.5"/>
</svg>
